<svg width="473" height="172" viewBox="0 0 473 172" fill="none" xmlns="http://www.w3.org/2000/svg">
<path d="M55.9768 58.2812L54.7406 58.2812L51.6174 52.035L51.6174 66.3819L50.186 66.5771C50.1426 65.818 50.0992 64.8637 50.0559 63.7142C50.0342 62.5647 50.0016 61.3285 49.9583 60.0055C49.9366 58.6608 49.9149 57.2836 49.8932 55.8738C49.8715 54.4641 49.8498 53.1086 49.8281 51.8073C49.8064 50.5059 49.7739 49.3131 49.7305 48.2287C49.7088 47.1442 49.6763 46.2659 49.6329 45.5935C49.7848 45.5935 49.9257 45.5827 50.0559 45.561C50.2077 45.5393 50.3378 45.5285 50.4463 45.5285C50.5547 45.5068 50.6523 45.5176 50.739 45.561C50.8258 45.6044 50.9017 45.702 50.9668 45.8538L55.3587 55.7437L59.0999 46.3743C59.1433 46.2659 59.2192 46.1791 59.3277 46.114C59.4578 46.0273 59.5879 45.9514 59.7181 45.8863C59.8699 45.8212 60.0217 45.7779 60.1735 45.7562C60.3253 45.7128 60.4555 45.6911 60.5639 45.6911C60.5856 45.6911 60.5964 45.7236 60.5964 45.7887C60.5964 45.8538 60.6181 46.0815 60.6615 46.4719C60.7049 46.8623 60.7699 47.4804 60.8567 48.3263C60.9651 49.1504 61.1278 50.3324 61.3447 51.8723C61.5616 53.3905 61.8327 55.3316 62.158 57.6957C62.505 60.038 62.9388 62.9334 63.4593 66.3819C63.3726 66.5771 63.2533 66.7072 63.1015 66.7723C62.9713 66.8373 62.8412 66.859 62.7111 66.8373C62.6026 66.8156 62.4942 66.7723 62.3857 66.7072C62.299 66.6205 62.2448 66.512 62.2231 66.3819L59.7506 48.9118L55.9768 58.2812ZM78.2734 56.3944C77.9481 55.9172 77.5034 55.3316 76.9395 54.6376C76.3973 53.9436 75.8117 53.1953 75.1828 52.3928C74.5538 51.5687 73.9032 50.7228 73.2308 49.8553C72.5585 48.9878 71.9295 48.1528 71.3439 47.3503C70.78 46.5261 70.2812 45.767 69.8474 45.073C69.4137 44.3573 69.0992 43.75 68.904 43.2512L69.5546 42.6656C70.3571 43.5331 71.0511 44.3356 71.6367 45.073C72.244 45.7887 72.7862 46.4719 73.2634 47.1225C73.7405 47.7515 74.1743 48.3588 74.5647 48.9444C74.9551 49.53 75.3563 50.1264 75.7684 50.7337C76.2021 51.3193 76.6684 51.9265 77.1673 52.5555C77.6661 53.1628 78.2517 53.8134 78.924 54.5075C79.0542 53.9002 79.1735 53.2278 79.2819 52.4904C79.412 51.7313 79.5422 50.9506 79.6723 50.1481C79.8024 49.3456 79.9434 48.5323 80.0952 47.7081C80.247 46.8623 80.4205 46.0598 80.6157 45.3007C80.8109 44.5199 81.017 43.7934 81.2339 43.121C81.4724 42.4487 81.7435 41.8739 82.0472 41.3968C82.0689 41.3751 82.1122 41.3643 82.1773 41.3643C82.2641 41.3643 82.3291 41.3643 82.3725 41.3643C82.4376 41.3643 82.5243 41.3751 82.6328 41.3968C82.7629 41.4185 82.8822 41.4619 82.9906 41.5269C83.0991 41.5703 83.1858 41.6354 83.2509 41.7221C83.3159 41.8089 83.3268 41.9065 83.2834 42.0149C83.0448 42.5138 82.7954 43.1861 82.5352 44.0319C82.2966 44.8778 82.058 45.8321 81.8194 46.8948C81.6026 47.9359 81.3965 49.0745 81.2013 50.3107C81.0061 51.5253 80.8218 52.7615 80.6483 54.0195C80.4964 55.2774 80.3555 56.5353 80.2253 57.7933C80.0952 59.0295 79.9976 60.1898 79.9325 61.2743C79.8675 62.3587 79.835 63.3455 79.835 64.2347C79.8566 65.124 79.9109 65.8397 79.9976 66.3819C79.9542 66.6205 79.9109 66.8048 79.8675 66.9349C79.8458 67.0434 79.7807 67.1301 79.6723 67.1952C79.5638 67.2603 79.4012 67.2928 79.1843 67.2928C78.9674 67.3145 78.6638 67.3253 78.2734 67.3253L78.2734 56.3944ZM106.6 50.7662C106.557 50.7228 106.503 50.6469 106.438 50.5385C106.372 50.43 106.307 50.3107 106.242 50.1806C106.177 50.0288 106.112 49.8987 106.047 49.7902C106.004 49.6601 105.982 49.5625 105.982 49.4974C105.982 49.3022 106.069 49.1504 106.242 49.042C106.416 48.9335 106.611 48.8685 106.828 48.8468C107.045 48.8251 107.251 48.8142 107.446 48.8142C107.663 48.8142 107.793 48.8142 107.836 48.8142C107.902 48.8142 107.988 48.8251 108.097 48.8468C108.227 48.8468 108.357 48.8576 108.487 48.8793C108.639 48.8793 108.769 48.8902 108.877 48.9118C108.986 48.9118 109.062 48.9118 109.105 48.9118C109.821 49.1721 110.634 49.4757 111.545 49.8228C112.478 50.1698 113.432 50.571 114.408 51.0265C115.384 51.4819 116.338 52.0024 117.271 52.588C118.204 53.1519 119.039 53.8026 119.776 54.54C120.513 55.2557 121.11 56.0473 121.565 56.9149C122.021 57.7824 122.248 58.7476 122.248 59.8103C122.248 60.7212 122.075 61.5454 121.728 62.2828C121.381 62.9985 120.915 63.6274 120.329 64.1697C119.765 64.6902 119.104 65.1456 118.344 65.536C117.585 65.9047 116.805 66.2084 116.002 66.4469C115.221 66.6638 114.43 66.8265 113.627 66.9349C112.825 67.0434 112.077 67.0976 111.383 67.0976C111.231 67.0976 110.97 67.0868 110.602 67.0651C110.233 67.0651 109.853 67.0542 109.463 67.0325C109.073 67.0108 108.715 67 108.39 67C108.086 66.9783 107.923 66.9675 107.902 66.9675L107.836 65.7638L106.6 50.7662ZM108.455 50.6035C108.455 50.6469 108.455 50.7337 108.455 50.8638C108.455 50.9939 108.455 51.1458 108.455 51.3193C108.476 51.4711 108.487 51.6121 108.487 51.7422C108.487 51.8723 108.487 51.9699 108.487 52.035C108.509 52.3603 108.53 52.8808 108.552 53.5965C108.596 54.3123 108.628 55.1256 108.65 56.0365C108.693 56.9474 108.737 57.9017 108.78 58.8994C108.845 59.8753 108.899 60.8188 108.943 61.7297C108.986 62.6189 109.018 63.4323 109.04 64.1697C109.084 64.8854 109.105 65.4167 109.105 65.7638C109.235 65.7638 109.441 65.7746 109.723 65.7963C110.027 65.7963 110.341 65.8071 110.667 65.8288C110.992 65.8288 111.296 65.8397 111.578 65.8614C111.881 65.8614 112.098 65.8614 112.228 65.8614C113.226 65.8614 114.213 65.7421 115.189 65.5035C116.165 65.2432 117.032 64.8637 117.791 64.3649C118.572 63.8443 119.201 63.1828 119.678 62.3804C120.177 61.5562 120.427 60.5694 120.427 59.4199C120.427 58.574 120.231 57.7716 119.841 57.0125C119.451 56.2317 118.93 55.516 118.279 54.8653C117.65 54.2147 116.924 53.6291 116.1 53.1086C115.276 52.588 114.419 52.1434 113.53 51.7747C112.662 51.3843 111.784 51.0915 110.895 50.8963C110.027 50.7011 109.214 50.6035 108.455 50.6035ZM141.357 67.0651C141.27 66.6747 141.162 66.165 141.031 65.536C140.901 64.8854 140.728 64.1913 140.511 63.4539C140.316 62.6948 140.066 61.9358 139.763 61.1767C139.481 60.4176 139.134 59.7344 138.722 59.1271C138.31 58.4981 137.832 57.9885 137.29 57.5981C136.77 57.2077 136.152 57.0125 135.436 57.0125C135.154 57.0125 134.785 57.0342 134.33 57.0775C133.874 57.1209 133.43 57.1968 132.996 57.3053C132.562 57.392 132.183 57.5222 131.857 57.6957C131.532 57.8692 131.369 58.0752 131.369 58.3138L131.369 66.5771C131.283 66.5771 131.152 66.5554 130.979 66.512C130.805 66.4686 130.632 66.4144 130.458 66.3493C130.285 66.2626 130.133 66.1758 130.003 66.0891C129.873 66.0023 129.808 65.9047 129.808 65.7963L129.808 49.5625C129.547 49.6059 129.32 49.7252 129.125 49.9204C128.929 50.0939 128.767 50.3107 128.637 50.571C128.528 50.8313 128.441 51.0915 128.376 51.3518C128.311 51.6121 128.268 51.8506 128.246 52.0675C128.159 52.0675 128.04 52.0241 127.888 51.9374C127.736 51.8289 127.595 51.7097 127.465 51.5795C127.335 51.4494 127.227 51.3193 127.14 51.1891C127.032 51.0373 126.977 50.9072 126.977 50.7987C126.977 50.2565 127.14 49.736 127.465 49.2372C127.791 48.7166 128.214 48.2503 128.734 47.8383C129.255 47.4045 129.829 47.025 130.458 46.6996C131.109 46.3526 131.76 46.0598 132.41 45.8212C133.061 45.5827 133.679 45.3983 134.265 45.2682C134.85 45.1381 135.349 45.073 135.761 45.073C136.368 45.073 136.943 45.0947 137.485 45.1381C138.028 45.1814 138.494 45.3116 138.884 45.5284C139.296 45.7236 139.622 46.0381 139.86 46.4719C140.099 46.9057 140.218 47.4913 140.218 48.2287C140.218 48.901 140.099 49.5625 139.86 50.2132C139.622 50.8421 139.318 51.4494 138.949 52.035C138.581 52.6206 138.169 53.1845 137.713 53.7267C137.258 54.2472 136.802 54.7352 136.347 55.1906C137.366 55.8196 138.19 56.4594 138.819 57.1101C139.448 57.739 139.958 58.3788 140.348 59.0295C140.739 59.6585 141.031 60.2983 141.227 60.9489C141.444 61.5779 141.606 62.2285 141.715 62.9009C141.845 63.5732 141.964 64.2564 142.073 64.9504C142.203 65.6445 142.376 66.3493 142.593 67.0651L141.357 67.0651ZM135.891 46.3743C135.739 46.3743 135.523 46.3851 135.241 46.4068C134.98 46.4068 134.677 46.4285 134.33 46.4719C133.983 46.5153 133.636 46.5803 133.289 46.6671C132.963 46.7538 132.649 46.8731 132.345 47.025C132.063 47.1768 131.825 47.3611 131.63 47.578C131.456 47.7732 131.369 48.0226 131.369 48.3263L131.369 56.5896C131.89 56.5896 132.432 56.4594 132.996 56.1992C133.56 55.9389 134.113 55.5919 134.655 55.1581C135.219 54.7027 135.761 54.2038 136.282 53.6616C136.802 53.0977 137.258 52.523 137.648 51.9374C138.038 51.3518 138.353 50.7662 138.592 50.1806C138.83 49.595 138.949 49.0745 138.949 48.6191C138.949 48.1202 138.863 47.7298 138.689 47.4479C138.537 47.1442 138.32 46.9165 138.038 46.7647C137.757 46.5912 137.431 46.4827 137.062 46.4394C136.694 46.396 136.303 46.3743 135.891 46.3743ZM149.502 49.4974C149.849 48.9986 150.304 48.5757 150.868 48.2287C151.454 47.86 152.093 47.5563 152.787 47.3177C153.503 47.0792 154.262 46.8948 155.065 46.7647C155.889 46.6346 156.691 46.537 157.472 46.4719C158.253 46.4068 159.012 46.3635 159.749 46.3418C160.487 46.3201 161.138 46.3092 161.701 46.3092C161.745 46.3092 161.842 46.3201 161.994 46.3418C162.146 46.3418 162.309 46.3526 162.482 46.3743C162.656 46.3743 162.808 46.3743 162.938 46.3743C163.089 46.3743 163.198 46.3743 163.263 46.3743C163.35 46.8514 163.296 47.1876 163.1 47.3828C162.927 47.5563 162.688 47.6648 162.385 47.7081C162.103 47.7298 161.799 47.719 161.474 47.6756C161.148 47.6105 160.91 47.5997 160.758 47.6431C160.541 47.6648 160.194 47.7298 159.717 47.8383C159.261 47.925 158.752 48.0335 158.188 48.1636C157.624 48.272 157.017 48.4022 156.366 48.554C155.737 48.6841 155.13 48.8142 154.544 48.9444C153.98 49.0528 153.471 49.1613 153.015 49.2697C152.56 49.3781 152.224 49.4541 152.007 49.4974C151.66 49.6276 151.464 49.7902 151.421 49.9854C151.378 50.1806 151.356 50.4083 151.356 50.6686C151.356 51.1241 151.378 51.6337 151.421 52.1976C151.486 52.7615 151.551 53.3254 151.616 53.8893C151.703 54.4316 151.779 54.9304 151.844 55.3858C151.931 55.8413 151.985 56.1775 152.007 56.3944C152.093 56.416 152.256 56.4269 152.495 56.4269C152.733 56.4269 152.896 56.4269 152.983 56.4269C153.481 56.4269 153.969 56.3835 154.447 56.2968C154.924 56.21 155.401 56.1124 155.878 56.004C156.355 55.8955 156.843 55.8088 157.342 55.7437C157.841 55.6569 158.351 55.6136 158.871 55.6136L158.871 56.8173C158.654 56.8173 158.351 56.839 157.96 56.8823C157.57 56.904 157.136 56.9583 156.659 57.045C156.203 57.1318 155.737 57.2294 155.26 57.3378C154.783 57.4246 154.349 57.5222 153.959 57.6306C153.568 57.739 153.243 57.8475 152.983 57.9559C152.744 58.0644 152.625 58.1728 152.625 58.2812L152.625 65.048C153.644 65.048 154.653 65.0155 155.65 64.9504C156.67 64.8854 157.689 64.8203 158.708 64.7552C159.728 64.6685 160.747 64.5926 161.766 64.5275C162.786 64.4625 163.805 64.4299 164.825 64.4299C164.825 64.6902 164.738 64.9071 164.564 65.0806C164.391 65.2324 164.185 65.3625 163.946 65.471C163.729 65.5577 163.491 65.6228 163.23 65.6662C162.97 65.7095 162.775 65.7421 162.645 65.7638C162.558 65.7854 162.287 65.818 161.832 65.8614C161.376 65.9047 160.812 65.9698 160.14 66.0566C159.467 66.1433 158.719 66.2301 157.895 66.3168C157.071 66.4036 156.258 66.4903 155.455 66.5771C154.653 66.6638 153.894 66.7506 153.178 66.8373C152.462 66.9024 151.866 66.9566 151.389 67C151.323 67.0217 151.226 67.0325 151.096 67.0325C151.096 64.1263 150.998 61.1983 150.803 58.2487C150.629 55.2774 150.196 52.3603 149.502 49.4974ZM175.962 46.7322C176.765 46.7322 177.459 46.9707 178.045 47.4479C178.652 47.9033 179.172 48.5215 179.606 49.3022C180.062 50.083 180.441 50.9831 180.745 52.0024C181.048 53.0218 181.298 54.0954 181.493 55.2232C181.688 56.3293 181.84 57.4571 181.948 58.6066C182.057 59.7344 182.133 60.7971 182.176 61.7948C182.22 62.7924 182.241 63.6925 182.241 64.495C182.263 65.2975 182.274 65.9264 182.274 66.3819L181.493 66.3819L180.257 59.5175C180.148 59.409 179.899 59.344 179.508 59.3223C179.14 59.3006 178.695 59.3114 178.175 59.3548C177.676 59.3982 177.123 59.4633 176.515 59.55C175.93 59.6151 175.366 59.6693 174.824 59.7127C174.303 59.7344 173.826 59.7452 173.392 59.7452C172.959 59.7235 172.644 59.6476 172.449 59.5175L172.449 66.3819L170.79 66.3819C170.79 66.3168 170.79 66.1975 170.79 66.024C170.811 65.8288 170.822 65.6336 170.822 65.4384C170.822 65.2432 170.833 65.0589 170.855 64.8854C170.876 64.7119 170.887 64.5926 170.887 64.5275C171.017 63.2696 171.115 62.0008 171.18 60.7212C171.267 59.4199 171.364 58.162 171.473 56.9474C171.581 55.7329 171.722 54.5725 171.896 53.4664C172.091 52.3603 172.362 51.3626 172.709 50.4734C173.056 49.5625 173.49 48.7926 174.01 48.1636C174.531 47.5129 175.182 47.0358 175.962 46.7322ZM176.483 48.2287C175.919 48.2287 175.442 48.4347 175.051 48.8468C174.683 49.2372 174.379 49.7577 174.141 50.4083C173.902 51.0373 173.718 51.7422 173.588 52.523C173.457 53.3038 173.371 54.0737 173.327 54.8328C173.284 55.5702 173.251 56.2642 173.23 56.9149C173.23 57.5438 173.23 58.0318 173.23 58.3788C174.292 58.3788 175.377 58.3029 176.483 58.1511C177.589 57.9776 178.63 57.8041 179.606 57.6306C179.628 57.5438 179.639 57.4029 179.639 57.2077C179.66 57.0125 179.671 56.7956 179.671 56.557C179.693 56.3184 179.704 56.0907 179.704 55.8738C179.725 55.6569 179.736 55.516 179.736 55.4509C179.736 54.7352 179.693 54.052 179.606 53.4014C179.541 52.7507 179.389 52.1217 179.151 51.5145C178.934 50.8855 178.608 50.2999 178.175 49.7577C177.763 49.2155 177.199 48.7058 176.483 48.2287ZM195.201 58.2812L193.965 58.2812L190.842 52.035L190.842 66.3819L189.41 66.5771C189.367 65.818 189.323 64.8637 189.28 63.7142C189.258 62.5647 189.226 61.3285 189.182 60.0055C189.161 58.6608 189.139 57.2836 189.117 55.8738C189.096 54.4641 189.074 53.1086 189.052 51.8073C189.031 50.5059 188.998 49.3131 188.955 48.2287C188.933 47.1442 188.9 46.2659 188.857 45.5935C189.009 45.5935 189.15 45.5827 189.28 45.561C189.432 45.5393 189.562 45.5284 189.67 45.5284C189.779 45.5068 189.876 45.5176 189.963 45.561C190.05 45.6044 190.126 45.702 190.191 45.8538L194.583 55.7437L198.324 46.3743C198.367 46.2659 198.443 46.1791 198.552 46.114C198.682 46.0273 198.812 45.9514 198.942 45.8863C199.094 45.8212 199.246 45.7779 199.398 45.7562C199.549 45.7128 199.68 45.6911 199.788 45.6911C199.81 45.6911 199.821 45.7236 199.821 45.7887C199.821 45.8538 199.842 46.0815 199.886 46.4719C199.929 46.8623 199.994 47.4804 200.081 48.3263C200.189 49.1504 200.352 50.3324 200.569 51.8723C200.786 53.3905 201.057 55.3316 201.382 57.6957C201.729 60.038 202.163 62.9334 202.683 66.3819C202.597 66.5771 202.477 66.7072 202.326 66.7723C202.195 66.8373 202.065 66.859 201.935 66.8373C201.827 66.8156 201.718 66.7723 201.61 66.7072C201.523 66.6205 201.469 66.512 201.447 66.3819L198.975 48.9118L195.201 58.2812ZM210.113 63.2587C210.113 62.9334 210.189 62.6406 210.34 62.3804C210.492 62.1201 210.752 61.99 211.121 61.99C211.49 61.99 211.75 62.1309 211.902 62.4129C212.054 62.6732 212.13 62.966 212.13 63.2913C212.13 63.66 212.043 63.9636 211.869 64.2022C211.718 64.4191 211.36 64.5275 210.796 64.5275C210.622 64.5275 210.492 64.4841 210.405 64.3974C210.319 64.2889 210.254 64.1697 210.21 64.0395C210.167 63.9094 210.134 63.7684 210.113 63.6166C210.113 63.4648 210.113 63.3455 210.113 63.2587ZM208.876 55.4509C208.876 55.2557 208.92 55.093 209.006 54.9629C209.093 54.8328 209.234 54.746 209.429 54.7027C209.625 54.6593 209.885 54.6701 210.21 54.7352C210.536 54.8003 210.937 54.9412 211.414 55.1581C211.197 55.4834 210.969 55.7762 210.731 56.0365C210.514 56.2968 210.232 56.4269 209.885 56.4269C209.603 56.4269 209.364 56.3293 209.169 56.1341C208.974 55.9389 208.876 55.7112 208.876 55.4509ZM233.349 57.1318C233.551 57.0474 233.728 57.0305 233.88 57.0812C234.032 57.1318 234.158 57.2245 234.259 57.3595C234.361 57.4944 234.437 57.6547 234.487 57.8403C234.538 58.0089 234.58 58.1776 234.614 58.3463C234.833 57.9752 235.145 57.68 235.55 57.4607C235.972 57.2245 236.419 57.0727 236.891 57.0052C237.363 56.9209 237.836 56.904 238.308 56.9546C238.78 56.9884 239.177 57.0896 239.497 57.2583C239.835 57.4101 240.071 57.6294 240.206 57.9162C240.341 58.1861 240.307 58.5066 240.105 58.8777C239.666 58.6246 239.202 58.4222 238.713 58.2704C238.241 58.1186 237.777 58.068 237.321 58.1186C236.866 58.1692 236.444 58.3463 236.056 58.65C235.668 58.9367 235.348 59.4006 235.094 60.0416C234.841 60.6826 234.681 61.5345 234.614 62.5972C234.563 63.6431 234.639 64.9504 234.841 66.5192L233.88 66.5192C233.88 66.5192 233.863 66.3843 233.829 66.1144C233.812 65.8276 233.787 65.4565 233.753 65.001C233.737 64.5456 233.703 64.0395 233.652 63.4829C233.618 62.9262 233.585 62.3611 233.551 61.7875C233.517 61.214 233.484 60.6658 233.45 60.1428C233.433 59.603 233.408 59.1391 233.374 58.7512C233.374 58.7006 233.365 58.5993 233.349 58.4475C233.349 58.2957 233.349 58.1355 233.349 57.9668C233.349 57.7812 233.349 57.6125 233.349 57.4607C233.349 57.3089 233.349 57.1992 233.349 57.1318ZM245.048 61.0538C245.048 60.5477 245.157 59.991 245.377 59.3837C245.596 58.7596 245.891 58.1861 246.262 57.6631C246.65 57.1233 247.08 56.6763 247.553 56.3221C248.042 55.9509 248.548 55.7654 249.071 55.7654C249.358 55.7654 249.636 55.8244 249.906 55.9425C250.193 56.0606 250.463 56.2208 250.716 56.4233C250.986 56.6088 251.222 56.8281 251.424 57.0812C251.643 57.3173 251.812 57.5704 251.93 57.8403C252.048 58.1102 252.107 58.3716 252.107 58.6246C252.124 58.8777 252.057 59.097 251.905 59.2825L246.566 60.2694C246.498 60.2862 246.439 60.3706 246.389 60.5224C246.338 60.6573 246.296 60.8345 246.262 61.0538C246.229 61.273 246.195 61.5176 246.161 61.7875C246.144 62.0406 246.127 62.2936 246.11 62.5466C246.094 62.7828 246.085 63.0021 246.085 63.2045C246.085 63.3901 246.085 63.5335 246.085 63.6347C246.085 64.107 246.195 64.495 246.414 64.7986C246.65 65.0854 246.945 65.3047 247.3 65.4565C247.654 65.6083 248.05 65.7095 248.489 65.7601C248.944 65.8108 249.391 65.8361 249.83 65.8361C250.269 65.8361 250.682 65.8192 251.07 65.7854C251.458 65.7517 251.778 65.7348 252.031 65.7348C252.031 65.8023 252.006 65.8782 251.956 65.9626C251.905 66.0469 251.846 66.1313 251.778 66.2156C251.711 66.2831 251.643 66.3506 251.576 66.418C251.508 66.4686 251.466 66.5024 251.449 66.5192C251.314 66.553 251.104 66.6036 250.817 66.6711C250.547 66.7217 250.252 66.7723 249.931 66.8229C249.628 66.8735 249.341 66.9157 249.071 66.9494C248.801 66.9831 248.615 67 248.514 67C247.991 67.1012 247.536 67.0928 247.148 66.9747C246.76 66.8566 246.431 66.6542 246.161 66.3674C245.891 66.0807 245.672 65.7348 245.503 65.33C245.335 64.9083 245.208 64.4612 245.124 63.9889C245.039 63.5166 244.989 63.0274 244.972 62.5213C244.972 62.0153 244.997 61.5261 245.048 61.0538ZM248.717 56.7269C248.565 56.7269 248.362 56.8113 248.109 56.9799C247.873 57.1318 247.646 57.3342 247.426 57.5872C247.224 57.8234 247.047 58.0848 246.895 58.3716C246.76 58.6415 246.718 58.8777 246.768 59.0801C247.207 59.1307 247.662 59.1223 248.135 59.0548C248.607 58.9873 249.037 58.8861 249.425 58.7512C249.813 58.5993 250.134 58.4307 250.387 58.2451C250.64 58.0427 250.758 57.8403 250.741 57.6378C250.741 57.4354 250.581 57.2583 250.26 57.1065C249.957 56.9378 249.442 56.8113 248.717 56.7269ZM257.025 64.8239C257.025 63.8624 257.287 63.1624 257.81 62.7238C258.349 62.2852 259.05 62.0659 259.91 62.0659C260.247 62.0659 260.559 62.0743 260.846 62.0912C261.15 62.1081 261.436 62.1502 261.706 62.2177C261.976 62.2852 262.238 62.3864 262.491 62.5213C262.761 62.6563 263.039 62.8503 263.326 63.1033C263.326 63.0527 263.326 62.9515 263.326 62.7997C263.343 62.631 263.351 62.4539 263.351 62.2683C263.351 62.0827 263.351 61.9141 263.351 61.7622C263.351 61.5936 263.351 61.4755 263.351 61.408C263.334 61.1044 263.326 60.7164 263.326 60.2441C263.326 59.7549 263.284 59.2572 263.199 58.7512C263.132 58.2451 262.98 57.7643 262.744 57.3089C262.524 56.8534 262.162 56.5076 261.656 56.2715C261.301 56.2715 260.973 56.3305 260.669 56.4486C260.365 56.5667 260.062 56.6932 259.758 56.8281C259.454 56.9631 259.151 57.0896 258.847 57.2077C258.543 57.3089 258.215 57.3595 257.86 57.3595C257.86 56.9378 257.987 56.592 258.24 56.3221C258.51 56.0353 258.83 55.816 259.201 55.6642C259.572 55.5124 259.96 55.4111 260.365 55.3605C260.77 55.3099 261.124 55.2846 261.428 55.2846C261.732 55.3352 262.01 55.3943 262.263 55.4618C262.533 55.5292 262.778 55.6642 262.997 55.8666C263.233 56.069 263.444 56.3811 263.629 56.8028C263.832 57.2077 264 57.7812 264.135 58.5234C264.287 59.2657 264.414 60.2103 264.515 61.3574C264.633 62.4876 264.726 63.8793 264.793 65.5324C264.827 65.7517 264.751 65.9457 264.566 66.1144C264.397 66.2662 264.161 66.4012 263.857 66.5192C263.553 66.6205 263.208 66.7132 262.82 66.7976C262.449 66.865 262.069 66.9157 261.681 66.9494C261.293 66.9831 260.922 67.0084 260.568 67.0253C260.213 67.0422 259.918 67.0506 259.682 67.0506C259.378 67.0506 259.066 67 258.746 66.8988C258.442 66.7976 258.155 66.6542 257.886 66.4686C257.633 66.2662 257.422 66.03 257.253 65.7601C257.101 65.4734 257.025 65.1613 257.025 64.8239ZM260.315 63.0527C259.471 63.2889 258.881 63.5756 258.543 63.913C258.206 64.2335 258.054 64.5456 258.088 64.8492C258.139 65.1529 258.341 65.4312 258.695 65.6842C259.05 65.9204 259.48 66.0807 259.986 66.165C260.492 66.2325 261.04 66.1903 261.63 66.0385C262.221 65.8698 262.786 65.5493 263.326 65.077C263.123 64.5878 262.921 64.2167 262.718 63.9636C262.516 63.6937 262.297 63.4913 262.061 63.3563C261.824 63.2214 261.563 63.137 261.276 63.1033C260.989 63.0696 260.669 63.0527 260.315 63.0527ZM270.04 47.3394C270.276 47.3732 270.479 47.4406 270.647 47.5419C270.833 47.6262 270.976 47.7865 271.078 48.0226C271.078 48.3431 271.086 48.7901 271.103 49.3637C271.137 49.9204 271.162 50.5698 271.179 51.312C271.213 52.0543 271.246 52.8555 271.28 53.7158C271.314 54.5761 271.348 55.4449 271.381 56.3221C271.415 57.1992 271.44 58.068 271.457 58.9283C271.491 59.7886 271.516 60.5899 271.533 61.3321C271.567 62.0743 271.592 62.7322 271.609 63.3057C271.626 63.8793 271.643 64.3179 271.66 64.6215C271.66 64.6552 271.651 64.7143 271.634 64.7986C271.634 64.883 271.626 64.9842 271.609 65.1023C271.609 65.2203 271.601 65.3384 271.584 65.4565C271.584 65.5577 271.584 65.6336 271.584 65.6842C271.567 65.7854 271.558 65.912 271.558 66.0638C271.558 66.1987 271.542 66.3337 271.508 66.4686C271.474 66.6036 271.415 66.7301 271.331 66.8482C271.263 66.9494 271.145 67.0084 270.976 67.0253L270.546 66.4939C270.529 66.4771 270.504 66.165 270.47 65.5577C270.454 64.9336 270.42 64.1323 270.369 63.1539C270.335 62.1587 270.302 61.0453 270.268 59.8139C270.234 58.5656 270.192 57.3089 270.141 56.0437C270.108 54.7786 270.074 53.564 270.04 52.4001C270.006 51.2361 269.981 50.2324 269.964 49.389C269.964 49.3215 269.964 49.1866 269.964 48.9841C269.981 48.7817 269.99 48.5793 269.99 48.3769C270.006 48.1576 270.015 47.9551 270.015 47.7696C270.032 47.5672 270.04 47.4238 270.04 47.3394ZM277.337 47.3394C277.573 47.3732 277.775 47.4406 277.944 47.5419C278.129 47.6262 278.273 47.7865 278.374 48.0226C278.374 48.3431 278.382 48.7901 278.399 49.3637C278.433 49.9204 278.458 50.5698 278.475 51.312C278.509 52.0543 278.543 52.8555 278.576 53.7158C278.61 54.5761 278.644 55.4449 278.678 56.3221C278.711 57.1992 278.737 58.068 278.754 58.9283C278.787 59.7886 278.813 60.5899 278.829 61.3321C278.863 62.0743 278.889 62.7322 278.905 63.3057C278.922 63.8793 278.939 64.3179 278.956 64.6215C278.956 64.6552 278.948 64.7143 278.931 64.7986C278.931 64.883 278.922 64.9842 278.905 65.1023C278.905 65.2203 278.897 65.3384 278.88 65.4565C278.88 65.5577 278.88 65.6336 278.88 65.6842C278.863 65.7854 278.855 65.912 278.855 66.0638C278.855 66.1987 278.838 66.3337 278.804 66.4686C278.77 66.6036 278.711 66.7301 278.627 66.8482C278.56 66.9494 278.442 67.0084 278.273 67.0253L277.843 66.4939C277.826 66.4771 277.8 66.165 277.767 65.5577C277.75 64.9336 277.716 64.1323 277.666 63.1539C277.632 62.1587 277.598 61.0453 277.564 59.8139C277.531 58.5656 277.488 57.3089 277.438 56.0437C277.404 54.7786 277.37 53.564 277.337 52.4001C277.303 51.2361 277.278 50.2324 277.261 49.389C277.261 49.3215 277.261 49.1866 277.261 48.9841C277.278 48.7817 277.286 48.5793 277.286 48.3769C277.303 48.1576 277.311 47.9551 277.311 47.7696C277.328 47.5672 277.337 47.4238 277.337 47.3394ZM288.935 77.3743C288.935 76.5309 289.011 75.6621 289.162 74.7681C289.314 73.874 289.466 72.98 289.618 72.0859C289.786 71.1919 289.921 70.2978 290.023 69.4038C290.141 68.5098 290.158 67.6326 290.073 66.7723L283.773 56.0943C284.144 55.757 284.439 55.5714 284.658 55.5377C284.878 55.4871 285.004 55.4786 285.038 55.5124C285.156 55.681 285.35 55.9931 285.62 56.4486C285.907 56.904 286.227 57.4354 286.581 58.0427C286.953 58.65 287.34 59.291 287.745 59.9657C288.15 60.6405 288.53 61.2815 288.884 61.8888C289.255 62.496 289.567 63.0358 289.82 63.5082C290.09 63.9805 290.276 64.3094 290.377 64.495L291.541 55.1075L292.806 55.7401L290.073 77.4502L288.935 77.3743ZM315.496 66.6711L310.562 55.3605L311.22 54.6774L315.42 64.0901L317.343 57.8909L322.226 64.5709C322.378 63.7443 322.471 62.9178 322.505 62.0912C322.555 61.2477 322.572 60.4127 322.555 59.5862C322.555 58.7427 322.547 57.8909 322.53 57.0305C322.53 56.1702 322.555 55.3099 322.606 54.4496L323.694 54.8545C323.694 56.1196 323.694 57.1908 323.694 58.068C323.694 58.9452 323.694 59.6874 323.694 60.2947C323.694 60.8851 323.686 61.3658 323.669 61.7369C323.669 62.1081 323.66 62.4286 323.643 62.6985C323.643 62.9684 323.627 63.2214 323.593 63.4576C323.559 63.6768 323.517 63.9299 323.466 64.2166C323.416 64.4866 323.357 64.8239 323.289 65.2288C323.222 65.6336 323.137 66.165 323.036 66.8229C322.513 66.418 322.007 65.912 321.518 65.3047C321.029 64.6974 320.565 64.0901 320.126 63.4829C319.705 62.8756 319.3 62.3189 318.912 61.8128C318.524 61.2899 318.17 60.9104 317.849 60.6742L315.496 66.6711ZM328.663 64.8239C328.663 63.8624 328.924 63.1624 329.447 62.7238C329.987 62.2852 330.687 62.0659 331.547 62.0659C331.885 62.0659 332.197 62.0743 332.483 62.0912C332.787 62.1081 333.074 62.1502 333.344 62.2177C333.614 62.2852 333.875 62.3864 334.128 62.5213C334.398 62.6563 334.676 62.8503 334.963 63.1033C334.963 63.0527 334.963 62.9515 334.963 62.7997C334.98 62.631 334.988 62.4539 334.988 62.2683C334.988 62.0827 334.988 61.9141 334.988 61.7622C334.988 61.5936 334.988 61.4755 334.988 61.408C334.972 61.1044 334.963 60.7164 334.963 60.2441C334.963 59.7549 334.921 59.2572 334.837 58.7512C334.769 58.2451 334.617 57.7643 334.381 57.3089C334.162 56.8534 333.799 56.5076 333.293 56.2715C332.939 56.2715 332.61 56.3305 332.306 56.4486C332.003 56.5667 331.699 56.6932 331.395 56.8281C331.092 56.9631 330.788 57.0896 330.484 57.2077C330.181 57.3089 329.852 57.3595 329.498 57.3595C329.498 56.9378 329.624 56.592 329.877 56.3221C330.147 56.0353 330.468 55.816 330.839 55.6642C331.21 55.5124 331.598 55.4111 332.003 55.3605C332.407 55.3099 332.762 55.2846 333.065 55.2846C333.369 55.3352 333.647 55.3943 333.9 55.4618C334.17 55.5292 334.415 55.6642 334.634 55.8666C334.87 56.069 335.081 56.3811 335.267 56.8028C335.469 57.2077 335.638 57.7812 335.773 58.5234C335.925 59.2657 336.051 60.2103 336.152 61.3574C336.27 62.4876 336.363 63.8793 336.431 65.5324C336.464 65.7517 336.388 65.9457 336.203 66.1144C336.034 66.2662 335.798 66.4012 335.494 66.5192C335.191 66.6205 334.845 66.7132 334.457 66.7976C334.086 66.865 333.706 66.9157 333.318 66.9494C332.93 66.9831 332.559 67.0084 332.205 67.0253C331.851 67.0422 331.556 67.0506 331.319 67.0506C331.016 67.0506 330.704 67 330.383 66.8988C330.08 66.7976 329.793 66.6542 329.523 66.4686C329.27 66.2662 329.059 66.03 328.89 65.7601C328.738 65.4734 328.663 65.1613 328.663 64.8239ZM331.952 63.0527C331.109 63.2889 330.518 63.5756 330.181 63.913C329.843 64.2335 329.692 64.5456 329.725 64.8492C329.776 65.1529 329.978 65.4312 330.333 65.6842C330.687 65.9204 331.117 66.0807 331.623 66.165C332.129 66.2325 332.677 66.1903 333.268 66.0385C333.858 65.8698 334.423 65.5493 334.963 65.077C334.761 64.5878 334.558 64.2166 334.356 63.9636C334.153 63.6937 333.934 63.4913 333.698 63.3563C333.462 63.2214 333.2 63.137 332.914 63.1033C332.627 63.0696 332.306 63.0527 331.952 63.0527ZM341.424 66.8735C341.391 66.6036 341.357 66.2156 341.323 65.7095C341.306 65.1866 341.281 64.6046 341.247 63.9636C341.23 63.3057 341.214 62.6226 341.197 61.9141C341.18 61.2056 341.163 60.5308 341.146 59.8898C341.129 59.2488 341.104 58.6753 341.07 58.1692C341.053 57.6463 341.02 57.2498 340.969 56.9799C340.969 56.9631 340.961 56.9209 340.944 56.8534C340.944 56.786 340.935 56.71 340.918 56.6257C340.918 56.5414 340.918 56.4739 340.918 56.4233C340.918 56.3558 340.918 56.3052 340.918 56.2715C341.171 56.069 341.382 56.0016 341.551 56.069C341.737 56.1365 341.888 56.2883 342.006 56.5245C342.125 56.7438 342.209 57.0221 342.259 57.3595C342.31 57.6969 342.344 58.0342 342.361 58.3716C342.394 58.709 342.411 59.0211 342.411 59.3078C342.411 59.5777 342.411 59.7717 342.411 59.8898C342.445 59.603 342.496 59.2657 342.563 58.8777C342.631 58.4897 342.732 58.0933 342.867 57.6884C343.002 57.2836 343.162 56.8872 343.348 56.4992C343.55 56.0943 343.795 55.7401 344.081 55.4364C344.368 55.1328 344.689 54.8966 345.043 54.728C345.414 54.5593 345.836 54.4918 346.308 54.5255C347.05 54.5593 347.658 54.7617 348.13 55.1328C348.619 55.5039 348.999 56.0016 349.268 56.6257C349.555 57.2498 349.758 57.9668 349.876 58.7765C350.011 59.5862 350.095 60.4465 350.129 61.3574C350.179 62.2683 350.196 63.1961 350.179 64.1407C350.163 65.0685 350.154 65.9626 350.154 66.8229C350.002 66.8566 349.85 66.9157 349.699 67C349.547 67.0675 349.42 67.0928 349.319 67.0759C349.218 67.0759 349.142 67.0084 349.091 66.8735C349.058 66.7217 349.074 66.4349 349.142 66.0132C349.159 65.7095 349.184 65.2456 349.218 64.6215C349.268 63.9805 349.285 63.272 349.268 62.496C349.268 61.7201 349.226 60.9188 349.142 60.0922C349.058 59.2657 348.897 58.515 348.661 57.8403C348.442 57.1486 348.121 56.592 347.7 56.1702C347.278 55.7317 346.73 55.5124 346.055 55.5124C345.363 55.7991 344.781 56.3389 344.309 57.1318C343.854 57.9246 343.482 58.8524 343.196 59.9151C342.926 60.9778 342.723 62.1334 342.588 63.3816C342.47 64.6131 342.403 65.8192 342.386 67C342.352 66.9831 342.285 66.9747 342.184 66.9747C342.099 66.9747 341.998 66.9747 341.88 66.9747C341.779 66.9578 341.678 66.941 341.576 66.9241C341.492 66.9072 341.441 66.8904 341.424 66.8735ZM358.032 57.8149C357.881 57.7643 357.67 57.7475 357.4 57.7643C357.147 57.7643 356.869 57.7812 356.565 57.8149C356.278 57.8318 356 57.8571 355.73 57.8909C355.46 57.9246 355.232 57.9415 355.047 57.9415C354.962 57.9415 354.903 57.8234 354.87 57.5872C354.853 57.3342 354.819 56.9968 354.768 56.5751L358.336 56.3221C358.387 55.7317 358.42 55.3099 358.437 55.0569C358.454 54.8039 358.454 54.593 358.437 54.4243C358.437 54.2388 358.429 54.0363 358.412 53.817C358.412 53.5809 358.412 53.2182 358.412 52.729C358.851 52.6615 359.18 52.6447 359.399 52.6784C359.635 52.6953 359.795 52.7543 359.88 52.8555C359.964 52.9567 359.998 53.1086 359.981 53.311C359.981 53.4965 359.956 53.7327 359.905 54.0195C359.871 54.3062 359.837 54.6521 359.804 55.0569C359.787 55.4618 359.804 55.9172 359.854 56.4233L362.891 56.3221L362.891 57.5619C362.756 57.5619 362.545 57.5703 362.258 57.5872C361.971 57.6041 361.659 57.621 361.322 57.6378C361.001 57.6547 360.698 57.6716 360.411 57.6884C360.141 57.7053 359.939 57.739 359.804 57.7896C359.669 58.3969 359.525 59.0464 359.374 59.738C359.222 60.4296 359.121 61.1128 359.07 61.7875C359.019 62.4623 359.036 63.0949 359.121 63.6853C359.205 64.2588 359.416 64.7396 359.753 65.1276C360.09 65.4987 360.571 65.7601 361.195 65.912C361.82 66.0469 362.646 65.9963 363.675 65.7601C363.641 66.0132 363.54 66.224 363.371 66.3927C363.22 66.5445 363.034 66.6711 362.815 66.7723C362.612 66.8566 362.393 66.9241 362.157 66.9747C361.921 67.0084 361.71 67.0253 361.524 67.0253C360.664 67.0253 359.981 66.8735 359.475 66.5698C358.969 66.2493 358.589 65.8361 358.336 65.33C358.083 64.8239 357.923 64.2504 357.855 63.6094C357.788 62.9515 357.763 62.2852 357.779 61.6104C357.813 60.9357 357.864 60.2694 357.931 59.6115C357.999 58.9536 358.032 58.3547 358.032 57.8149ZM384.619 57.8149C384.467 57.7643 384.256 57.7475 383.986 57.7643C383.733 57.7643 383.455 57.7812 383.151 57.8149C382.865 57.8318 382.586 57.8571 382.316 57.8909C382.047 57.9246 381.819 57.9415 381.633 57.9415C381.549 57.9415 381.49 57.8234 381.456 57.5872C381.439 57.3342 381.406 56.9968 381.355 56.5751L384.923 56.3221C384.973 55.7317 385.007 55.3099 385.024 55.0569C385.041 54.8039 385.041 54.593 385.024 54.4243C385.024 54.2388 385.015 54.0363 384.999 53.817C384.999 53.5809 384.999 53.2182 384.999 52.729C385.437 52.6615 385.766 52.6447 385.985 52.6784C386.222 52.6953 386.382 52.7543 386.466 52.8555C386.55 52.9567 386.584 53.1086 386.567 53.311C386.567 53.4965 386.542 53.7327 386.491 54.0195C386.458 54.3062 386.424 54.6521 386.39 55.0569C386.373 55.4618 386.39 55.9172 386.441 56.4233L389.477 56.3221L389.477 57.5619C389.342 57.5619 389.131 57.5703 388.845 57.5872C388.558 57.6041 388.246 57.621 387.908 57.6378C387.588 57.6547 387.284 57.6716 386.998 57.6884C386.728 57.7053 386.525 57.739 386.39 57.7896C386.255 58.3969 386.112 59.0464 385.96 59.738C385.808 60.4296 385.707 61.1128 385.656 61.7875C385.606 62.4623 385.623 63.0949 385.707 63.6853C385.791 64.2588 386.002 64.7396 386.34 65.1276C386.677 65.4987 387.158 65.7601 387.782 65.912C388.406 66.0469 389.233 65.9963 390.262 65.7601C390.228 66.0132 390.127 66.224 389.958 66.3927C389.806 66.5445 389.621 66.6711 389.401 66.7723C389.199 66.8566 388.98 66.9241 388.743 66.9747C388.507 67.0084 388.296 67.0253 388.111 67.0253C387.251 67.0253 386.567 66.8735 386.061 66.5698C385.555 66.2493 385.176 65.8361 384.923 65.33C384.67 64.8239 384.509 64.2504 384.442 63.6094C384.374 62.9515 384.349 62.2852 384.366 61.6104C384.4 60.9357 384.45 60.2694 384.518 59.6115C384.585 58.9536 384.619 58.3547 384.619 57.8149ZM394.876 62.3695C394.876 61.9815 394.91 61.5345 394.977 61.0284C395.045 60.5055 395.154 59.9826 395.306 59.4597C395.458 58.9367 395.643 58.4222 395.863 57.9162C396.099 57.4101 396.377 56.9631 396.698 56.5751C397.018 56.1702 397.389 55.8497 397.811 55.6136C398.233 55.3605 398.705 55.234 399.228 55.234C399.768 55.234 400.265 55.4196 400.721 55.7907C401.193 56.1618 401.59 56.6426 401.91 57.233C402.248 57.8234 402.501 58.4813 402.669 59.2066C402.838 59.932 402.905 60.6405 402.872 61.3321C402.872 62.3442 402.678 63.2467 402.29 64.0395C401.902 64.8324 401.404 65.4734 400.797 65.9626C400.206 66.4518 399.565 66.7807 398.874 66.9494C398.199 67.1181 397.558 67.0759 396.951 66.8229C396.36 66.553 395.863 66.0553 395.458 65.33C395.07 64.6046 394.876 63.6178 394.876 62.3695ZM395.812 62.4707C395.863 63.4997 396.04 64.2926 396.344 64.8492C396.647 65.4059 397.01 65.777 397.432 65.9626C397.87 66.1313 398.342 66.1313 398.849 65.9626C399.355 65.7939 399.827 65.4987 400.265 65.077C400.704 64.6384 401.075 64.0986 401.379 63.4576C401.699 62.7997 401.876 62.0659 401.91 61.2562C401.944 60.6489 401.893 60.0585 401.758 59.485C401.64 58.9114 401.463 58.4054 401.227 57.9668C401.008 57.5113 400.729 57.1571 400.392 56.904C400.072 56.6341 399.7 56.4992 399.279 56.4992C398.874 56.4992 398.511 56.6004 398.191 56.8028C397.87 57.0052 397.575 57.2836 397.305 57.6378C397.052 57.9752 396.833 58.3632 396.647 58.8018C396.462 59.2404 396.301 59.6789 396.166 60.1175C396.048 60.5561 395.956 60.9863 395.888 61.408C395.837 61.8128 395.812 62.1671 395.812 62.4707ZM283.375 74.5023C283.442 75.1096 283.51 75.7844 283.577 76.5266C283.662 77.2519 283.729 78.0026 283.78 78.7786C283.83 79.5377 283.864 80.3052 283.881 81.0812C283.898 81.8403 283.889 82.5572 283.856 83.2319C284.126 82.9958 284.37 82.7933 284.589 82.6246C284.826 82.4391 285.053 82.2788 285.273 82.1439C285.509 82.0089 285.737 81.9077 285.956 81.8403C286.192 81.7728 286.462 81.739 286.766 81.739C287.373 81.739 287.93 81.8909 288.436 82.1945C288.942 82.4813 289.372 82.8692 289.726 83.3584C290.08 83.8308 290.35 84.3621 290.536 84.9525C290.738 85.5261 290.839 86.0912 290.839 86.6479C290.806 87.5925 290.612 88.3516 290.257 88.9251C289.903 89.4818 289.431 89.912 288.84 90.2156C288.267 90.5192 287.584 90.6964 286.791 90.747C286.015 90.7976 285.197 90.7891 284.336 90.7217L284.336 89.5324C284.64 89.8023 284.918 89.9626 285.171 90.0132C285.424 90.0469 285.728 90.0638 286.082 90.0638C286.639 90.0638 287.145 89.9794 287.601 89.8107C288.056 89.6421 288.444 89.4059 288.765 89.1023C289.102 88.7818 289.355 88.4022 289.524 87.9636C289.709 87.525 289.802 87.0443 289.802 86.5213C289.802 86.0659 289.777 85.661 289.726 85.3068C289.675 84.9525 289.557 84.632 289.372 84.3453C289.203 84.0585 288.95 83.7886 288.613 83.5356C288.275 83.2657 287.82 83.0042 287.246 82.7512C287.213 82.7343 287.137 82.7259 287.019 82.7259C286.901 82.709 286.816 82.7006 286.766 82.7006C286.496 82.7006 286.226 82.7849 285.956 82.9536C285.686 83.1054 285.441 83.3078 285.222 83.5609C285.003 83.797 284.817 84.0669 284.665 84.3706C284.514 84.6573 284.404 84.9272 284.336 85.1803C284.303 85.3827 284.252 85.7454 284.185 86.2683C284.134 86.7744 284.067 87.3226 283.982 87.913C283.915 88.5034 283.856 89.0601 283.805 89.583C283.754 90.106 283.712 90.4686 283.679 90.6711L282.894 90.5192L282.388 74.5023L283.375 74.5023ZM295.808 85.0538C295.808 84.5477 295.918 83.991 296.137 83.3837C296.356 82.7596 296.651 82.1861 297.022 81.6631C297.41 81.1233 297.841 80.6763 298.313 80.3221C298.802 79.9509 299.308 79.7654 299.831 79.7654C300.118 79.7654 300.396 79.8244 300.666 79.9425C300.953 80.0606 301.223 80.2208 301.476 80.4233C301.746 80.6088 301.982 80.8281 302.184 81.0812C302.404 81.3173 302.572 81.5704 302.69 81.8403C302.808 82.1102 302.867 82.3716 302.867 82.6246C302.884 82.8777 302.817 83.097 302.665 83.2825L297.326 84.2694C297.259 84.2862 297.2 84.3706 297.149 84.5224C297.098 84.6573 297.056 84.8345 297.022 85.0538C296.989 85.273 296.955 85.5176 296.921 85.7875C296.904 86.0406 296.888 86.2936 296.871 86.5466C296.854 86.7828 296.845 87.0021 296.845 87.2045C296.845 87.3901 296.845 87.5335 296.845 87.6347C296.845 88.107 296.955 88.495 297.174 88.7986C297.41 89.0854 297.706 89.3047 298.06 89.4565C298.414 89.6083 298.811 89.7095 299.249 89.7601C299.705 89.8107 300.152 89.8361 300.59 89.8361C301.029 89.8361 301.442 89.8192 301.83 89.7854C302.218 89.7517 302.539 89.7348 302.792 89.7348C302.792 89.8023 302.766 89.8782 302.716 89.9626C302.665 90.0469 302.606 90.1313 302.539 90.2156C302.471 90.2831 302.404 90.3506 302.336 90.418C302.269 90.4686 302.226 90.5024 302.21 90.5192C302.075 90.553 301.864 90.6036 301.577 90.6711C301.307 90.7217 301.012 90.7723 300.691 90.8229C300.388 90.8735 300.101 90.9157 299.831 90.9494C299.561 90.9831 299.376 91 299.274 91C298.752 91.1012 298.296 91.0928 297.908 90.9747C297.52 90.8566 297.191 90.6542 296.921 90.3674C296.651 90.0807 296.432 89.7348 296.263 89.33C296.095 88.9083 295.968 88.4612 295.884 87.9889C295.799 87.5166 295.749 87.0274 295.732 86.5213C295.732 86.0153 295.757 85.5261 295.808 85.0538ZM299.477 80.7269C299.325 80.7269 299.123 80.8113 298.87 80.9799C298.633 81.1318 298.406 81.3342 298.186 81.5872C297.984 81.8234 297.807 82.0848 297.655 82.3716C297.52 82.6415 297.478 82.8777 297.529 83.0801C297.967 83.1307 298.423 83.1223 298.895 83.0548C299.367 82.9873 299.797 82.8861 300.185 82.7512C300.573 82.5993 300.894 82.4307 301.147 82.2451C301.4 82.0427 301.518 81.8403 301.501 81.6378C301.501 81.4354 301.341 81.2583 301.02 81.1065C300.717 80.9378 300.202 80.8113 299.477 80.7269ZM321.129 88.8239C321.129 87.8624 321.391 87.1624 321.914 86.7238C322.453 86.2852 323.154 86.0659 324.014 86.0659C324.351 86.0659 324.663 86.0743 324.95 86.0912C325.254 86.1081 325.54 86.1502 325.81 86.2177C326.08 86.2852 326.342 86.3864 326.595 86.5213C326.865 86.6563 327.143 86.8503 327.43 87.1033C327.43 87.0527 327.43 86.9515 327.43 86.7997C327.447 86.631 327.455 86.4539 327.455 86.2683C327.455 86.0827 327.455 85.9141 327.455 85.7622C327.455 85.5936 327.455 85.4755 327.455 85.408C327.438 85.1044 327.43 84.7164 327.43 84.2441C327.43 83.7549 327.388 83.2572 327.303 82.7512C327.236 82.2451 327.084 81.7643 326.848 81.3089C326.629 80.8534 326.266 80.5076 325.76 80.2715C325.406 80.2715 325.077 80.3305 324.773 80.4486C324.469 80.5667 324.166 80.6932 323.862 80.8281C323.558 80.9631 323.255 81.0896 322.951 81.2077C322.647 81.3089 322.319 81.3595 321.964 81.3595C321.964 80.9378 322.091 80.592 322.344 80.3221C322.614 80.0353 322.934 79.816 323.305 79.6642C323.676 79.5124 324.064 79.4111 324.469 79.3605C324.874 79.3099 325.228 79.2846 325.532 79.2846C325.836 79.3352 326.114 79.3943 326.367 79.4618C326.637 79.5292 326.882 79.6642 327.101 79.8666C327.337 80.069 327.548 80.3811 327.733 80.8028C327.936 81.2077 328.105 81.7812 328.239 82.5234C328.391 83.2657 328.518 84.2103 328.619 85.3574C328.737 86.4876 328.83 87.8793 328.897 89.5324C328.931 89.7517 328.855 89.9457 328.67 90.1144C328.501 90.2662 328.265 90.4012 327.961 90.5192C327.658 90.6205 327.312 90.7132 326.924 90.7976C326.553 90.865 326.173 90.9157 325.785 90.9494C325.397 90.9831 325.026 91.0084 324.672 91.0253C324.317 91.0422 324.022 91.0506 323.786 91.0506C323.482 91.0506 323.17 91 322.85 90.8988C322.546 90.7976 322.259 90.6542 321.99 90.4686C321.737 90.2662 321.526 90.03 321.357 89.7601C321.205 89.4734 321.129 89.1613 321.129 88.8239ZM324.419 87.0527C323.575 87.2889 322.985 87.5756 322.647 87.913C322.31 88.2335 322.158 88.5456 322.192 88.8492C322.243 89.1529 322.445 89.4312 322.799 89.6842C323.154 89.9204 323.584 90.0807 324.09 90.165C324.596 90.2325 325.144 90.1903 325.734 90.0385C326.325 89.8698 326.89 89.5493 327.43 89.077C327.227 88.5878 327.025 88.2166 326.823 87.9636C326.62 87.6937 326.401 87.4913 326.165 87.3563C325.928 87.2214 325.667 87.137 325.38 87.1033C325.093 87.0696 324.773 87.0527 324.419 87.0527ZM333.891 90.8735C333.857 90.6036 333.824 90.2156 333.79 89.7095C333.773 89.1866 333.748 88.6046 333.714 87.9636C333.697 87.3057 333.68 86.6226 333.663 85.9141C333.647 85.2056 333.63 84.5308 333.613 83.8898C333.596 83.2488 333.571 82.6753 333.537 82.1692C333.52 81.6463 333.486 81.2498 333.436 80.9799C333.436 80.9631 333.427 80.9209 333.41 80.8534C333.41 80.786 333.402 80.71 333.385 80.6257C333.385 80.5414 333.385 80.4739 333.385 80.4233C333.385 80.3558 333.385 80.3052 333.385 80.2715C333.638 80.069 333.849 80.0016 334.018 80.069C334.203 80.1365 334.355 80.2883 334.473 80.5245C334.591 80.7438 334.676 81.0221 334.726 81.3595C334.777 81.6969 334.811 82.0342 334.827 82.3716C334.861 82.709 334.878 83.0211 334.878 83.3078C334.878 83.5777 334.878 83.7717 334.878 83.8898C334.912 83.603 334.962 83.2657 335.03 82.8777C335.097 82.4897 335.199 82.0933 335.333 81.6884C335.468 81.2836 335.629 80.8872 335.814 80.4992C336.017 80.0943 336.261 79.7401 336.548 79.4364C336.835 79.1328 337.155 78.8966 337.51 78.728C337.881 78.5593 338.302 78.4918 338.775 78.5255C339.517 78.5593 340.124 78.7617 340.597 79.1328C341.086 79.5039 341.465 80.0016 341.735 80.6257C342.022 81.2498 342.224 81.9668 342.342 82.7765C342.477 83.5862 342.562 84.4465 342.595 85.3574C342.646 86.2683 342.663 87.1961 342.646 88.1407C342.629 89.0685 342.621 89.9626 342.621 90.8229C342.469 90.8566 342.317 90.9157 342.165 91C342.014 91.0675 341.887 91.0928 341.786 91.0759C341.685 91.0759 341.609 91.0084 341.558 90.8735C341.524 90.7217 341.541 90.4349 341.609 90.0132C341.626 89.7095 341.651 89.2456 341.685 88.6215C341.735 87.9805 341.752 87.272 341.735 86.496C341.735 85.7201 341.693 84.9188 341.609 84.0922C341.524 83.2657 341.364 82.515 341.128 81.8403C340.909 81.1486 340.588 80.592 340.166 80.1702C339.745 79.7317 339.196 79.5124 338.522 79.5124C337.83 79.7991 337.248 80.3389 336.776 81.1318C336.32 81.9246 335.949 82.8524 335.662 83.9151C335.393 84.9778 335.19 86.1334 335.055 87.3816C334.937 88.6131 334.87 89.8192 334.853 91C334.819 90.9831 334.751 90.9747 334.65 90.9747C334.566 90.9747 334.465 90.9747 334.347 90.9747C334.245 90.9578 334.144 90.941 334.043 90.9241C333.959 90.9072 333.908 90.8904 333.891 90.8735ZM360.731 88.8239C360.731 87.8624 360.992 87.1624 361.515 86.7238C362.055 86.2852 362.755 86.0659 363.615 86.0659C363.953 86.0659 364.265 86.0743 364.552 86.0912C364.855 86.1081 365.142 86.1502 365.412 86.2177C365.682 86.2852 365.943 86.3864 366.196 86.5213C366.466 86.6563 366.745 86.8503 367.031 87.1033C367.031 87.0527 367.031 86.9515 367.031 86.7997C367.048 86.631 367.057 86.4539 367.057 86.2683C367.057 86.0827 367.057 85.9141 367.057 85.7622C367.057 85.5936 367.057 85.4755 367.057 85.408C367.04 85.1044 367.031 84.7164 367.031 84.2441C367.031 83.7549 366.989 83.2572 366.905 82.7512C366.837 82.2451 366.685 81.7643 366.449 81.3089C366.23 80.8534 365.867 80.5076 365.361 80.2715C365.007 80.2715 364.678 80.3305 364.374 80.4486C364.071 80.5667 363.767 80.6932 363.464 80.8281C363.16 80.9631 362.856 81.0896 362.553 81.2077C362.249 81.3089 361.92 81.3595 361.566 81.3595C361.566 80.9378 361.692 80.592 361.945 80.3221C362.215 80.0353 362.536 79.816 362.907 79.6642C363.278 79.5124 363.666 79.4111 364.071 79.3605C364.476 79.3099 364.83 79.2846 365.134 79.2846C365.437 79.3352 365.716 79.3943 365.969 79.4618C366.238 79.5292 366.483 79.6642 366.702 79.8666C366.939 80.069 367.149 80.3811 367.335 80.8028C367.537 81.2077 367.706 81.7812 367.841 82.5234C367.993 83.2657 368.119 84.2103 368.221 85.3574C368.339 86.4876 368.431 87.8793 368.499 89.5324C368.533 89.7517 368.457 89.9457 368.271 90.1144C368.102 90.2662 367.866 90.4012 367.563 90.5192C367.259 90.6205 366.913 90.7132 366.525 90.7976C366.154 90.865 365.775 90.9157 365.387 90.9494C364.999 90.9831 364.627 91.0084 364.273 91.0253C363.919 91.0422 363.624 91.0506 363.388 91.0506C363.084 91.0506 362.772 91 362.451 90.8988C362.148 90.7976 361.861 90.6542 361.591 90.4686C361.338 90.2662 361.127 90.03 360.959 89.7601C360.807 89.4734 360.731 89.1613 360.731 88.8239ZM364.02 87.0527C363.177 87.2889 362.586 87.5756 362.249 87.913C361.912 88.2335 361.76 88.5456 361.794 88.8492C361.844 89.1529 362.047 89.4312 362.401 89.6842C362.755 89.9204 363.185 90.0807 363.691 90.165C364.197 90.2325 364.746 90.1903 365.336 90.0385C365.926 89.8698 366.491 89.5493 367.031 89.077C366.829 88.5878 366.626 88.2166 366.424 87.9636C366.222 87.6937 366.002 87.4913 365.766 87.3563C365.53 87.2214 365.268 87.137 364.982 87.1033C364.695 87.0696 364.374 87.0527 364.02 87.0527ZM373.746 71.3394C373.982 71.3732 374.184 71.4406 374.353 71.5419C374.539 71.6262 374.682 71.7865 374.783 72.0226C374.783 72.3431 374.792 72.7901 374.808 73.3637C374.842 73.9204 374.867 74.5698 374.884 75.312C374.918 76.0543 374.952 76.8555 374.986 77.7158C375.019 78.5761 375.053 79.4449 375.087 80.3221C375.121 81.1992 375.146 82.068 375.163 82.9283C375.196 83.7886 375.222 84.5899 375.239 85.3321C375.272 86.0743 375.298 86.7322 375.315 87.3057C375.331 87.8793 375.348 88.3179 375.365 88.6215C375.365 88.6552 375.357 88.7143 375.34 88.7986C375.34 88.883 375.331 88.9842 375.315 89.1023C375.315 89.2203 375.306 89.3384 375.289 89.4565C375.289 89.5577 375.289 89.6336 375.289 89.6842C375.272 89.7854 375.264 89.912 375.264 90.0638C375.264 90.1987 375.247 90.3337 375.213 90.4686C375.18 90.6036 375.121 90.7301 375.036 90.8482C374.969 90.9494 374.851 91.0084 374.682 91.0253L374.252 90.4939C374.235 90.4771 374.21 90.165 374.176 89.5577C374.159 88.9336 374.125 88.1323 374.075 87.1539C374.041 86.1587 374.007 85.0453 373.973 83.8139C373.94 82.5656 373.898 81.3089 373.847 80.0437C373.813 78.7786 373.779 77.564 373.746 76.4001C373.712 75.2361 373.687 74.2324 373.67 73.389C373.67 73.3215 373.67 73.1866 373.67 72.9841C373.687 72.7817 373.695 72.5793 373.695 72.3769C373.712 72.1576 373.72 71.9551 373.72 71.7696C373.737 71.5672 373.746 71.4238 373.746 71.3394ZM381.624 81.1824C381.827 81.1824 381.995 81.1739 382.13 81.1571C382.282 81.1402 382.409 81.2245 382.51 81.4101C382.56 82.1692 382.619 82.9452 382.687 83.738C382.754 84.514 382.822 85.2984 382.889 86.0912C382.957 86.884 382.999 87.6853 383.016 88.495C383.05 89.2878 383.058 90.0638 383.041 90.8229C383.041 90.9241 383.016 90.9831 382.965 91C382.915 91.0337 382.839 91.0422 382.737 91.0253C382.653 91.0253 382.543 91.0169 382.409 91C382.29 91 382.155 91.0169 382.004 91.0506L381.624 81.1824ZM380.157 76.6531C380.157 76.535 380.165 76.4085 380.182 76.2736C380.199 76.1217 380.232 75.9868 380.283 75.8687C380.351 75.7506 380.426 75.6494 380.511 75.5651C380.612 75.4807 380.73 75.4385 380.865 75.4385C381.067 75.4385 381.27 75.447 381.472 75.4639C381.675 75.4807 381.869 75.5229 382.054 75.5904C382.24 75.641 382.392 75.7338 382.51 75.8687C382.628 75.9868 382.687 76.1639 382.687 76.4001C382.687 76.8049 382.535 77.1676 382.231 77.4881C381.928 77.7917 381.557 77.9436 381.118 77.9436C380.781 77.9436 380.536 77.817 380.384 77.564C380.232 77.2941 380.157 76.9905 380.157 76.6531ZM381.624 76.7796C381.574 76.7796 381.548 76.8218 381.548 76.9061C381.548 76.9905 381.574 77.0326 381.624 77.0326C381.692 77.0326 381.725 76.9905 381.725 76.9061C381.725 76.8218 381.692 76.7796 381.624 76.7796ZM387.883 85.0538C387.883 84.5477 387.993 83.991 388.212 83.3837C388.431 82.7596 388.727 82.1861 389.098 81.6631C389.486 81.1233 389.916 80.6763 390.388 80.3221C390.877 79.9509 391.383 79.7654 391.906 79.7654C392.193 79.7654 392.471 79.8244 392.741 79.9425C393.028 80.0606 393.298 80.2208 393.551 80.4233C393.821 80.6088 394.057 80.8281 394.26 81.0812C394.479 81.3173 394.647 81.5703 394.766 81.8403C394.884 82.1102 394.943 82.3716 394.943 82.6246C394.96 82.8777 394.892 83.097 394.74 83.2825L389.401 84.2694C389.334 84.2862 389.275 84.3706 389.224 84.5224C389.174 84.6573 389.131 84.8345 389.098 85.0538C389.064 85.273 389.03 85.5176 388.996 85.7875C388.98 86.0406 388.963 86.2936 388.946 86.5466C388.929 86.7828 388.921 87.0021 388.921 87.2045C388.921 87.3901 388.921 87.5335 388.921 87.6347C388.921 88.107 389.03 88.495 389.249 88.7986C389.486 89.0854 389.781 89.3047 390.135 89.4565C390.489 89.6083 390.886 89.7095 391.324 89.7601C391.78 89.8107 392.227 89.8361 392.665 89.8361C393.104 89.8361 393.517 89.8192 393.905 89.7854C394.293 89.7517 394.614 89.7348 394.867 89.7348C394.867 89.8023 394.841 89.8782 394.791 89.9626C394.74 90.0469 394.681 90.1313 394.614 90.2156C394.546 90.2831 394.479 90.3506 394.411 90.418C394.344 90.4686 394.302 90.5024 394.285 90.5192C394.15 90.553 393.939 90.6036 393.652 90.6711C393.382 90.7217 393.087 90.7723 392.767 90.8229C392.463 90.8735 392.176 90.9157 391.906 90.9494C391.636 90.9831 391.451 91 391.35 91C390.827 91.1012 390.371 91.0928 389.983 90.9747C389.595 90.8566 389.266 90.6542 388.996 90.3674C388.727 90.0807 388.507 89.7348 388.339 89.33C388.17 88.9083 388.043 88.4612 387.959 87.9889C387.875 87.5166 387.824 87.0274 387.807 86.5213C387.807 86.0153 387.832 85.5261 387.883 85.0538ZM391.552 80.7269C391.4 80.7269 391.198 80.8113 390.945 80.9799C390.709 81.1318 390.481 81.3342 390.262 81.5872C390.059 81.8234 389.882 82.0848 389.73 82.3716C389.595 82.6415 389.553 82.8777 389.604 83.0801C390.042 83.1307 390.498 83.1223 390.97 83.0548C391.442 82.9873 391.873 82.8861 392.261 82.7512C392.649 82.5993 392.969 82.4307 393.222 82.2451C393.475 82.0427 393.593 81.8403 393.576 81.6378C393.576 81.4354 393.416 81.2583 393.096 81.1065C392.792 80.9378 392.277 80.8113 391.552 80.7269ZM400.24 90.8735C400.206 90.6036 400.173 90.2156 400.139 89.7095C400.122 89.1866 400.097 88.6046 400.063 87.9636C400.046 87.3057 400.029 86.6225 400.012 85.9141C399.996 85.2056 399.979 84.5308 399.962 83.8898C399.945 83.2488 399.92 82.6753 399.886 82.1692C399.869 81.6463 399.835 81.2498 399.785 80.9799C399.785 80.9631 399.776 80.9209 399.759 80.8534C399.759 80.786 399.751 80.71 399.734 80.6257C399.734 80.5414 399.734 80.4739 399.734 80.4233C399.734 80.3558 399.734 80.3052 399.734 80.2715C399.987 80.069 400.198 80.0016 400.367 80.069C400.552 80.1365 400.704 80.2883 400.822 80.5245C400.94 80.7438 401.025 81.0221 401.075 81.3595C401.126 81.6969 401.16 82.0342 401.176 82.3716C401.21 82.709 401.227 83.0211 401.227 83.3078C401.227 83.5777 401.227 83.7717 401.227 83.8898C401.261 83.603 401.311 83.2657 401.379 82.8777C401.446 82.4897 401.548 82.0933 401.682 81.6884C401.817 81.2836 401.978 80.8872 402.163 80.4992C402.366 80.0943 402.61 79.7401 402.897 79.4364C403.184 79.1328 403.504 78.8966 403.859 78.728C404.23 78.5593 404.651 78.4918 405.124 78.5255C405.866 78.5593 406.473 78.7617 406.946 79.1328C407.435 79.5039 407.814 80.0016 408.084 80.6257C408.371 81.2498 408.573 81.9668 408.691 82.7765C408.826 83.5862 408.911 84.4465 408.944 85.3574C408.995 86.2683 409.012 87.1961 408.995 88.1407C408.978 89.0685 408.97 89.9626 408.97 90.8229C408.818 90.8566 408.666 90.9157 408.514 91C408.363 91.0675 408.236 91.0928 408.135 91.0759C408.034 91.0759 407.958 91.0084 407.907 90.8735C407.873 90.7217 407.89 90.4349 407.958 90.0132C407.975 89.7095 408 89.2456 408.034 88.6215C408.084 87.9805 408.101 87.272 408.084 86.496C408.084 85.7201 408.042 84.9188 407.958 84.0922C407.873 83.2657 407.713 82.515 407.477 81.8403C407.258 81.1486 406.937 80.592 406.515 80.1702C406.094 79.7317 405.545 79.5124 404.871 79.5124C404.179 79.7991 403.597 80.3389 403.125 81.1318C402.669 81.9246 402.298 82.8524 402.011 83.9151C401.742 84.9778 401.539 86.1334 401.404 87.3816C401.286 88.6131 401.219 89.8192 401.202 91C401.168 90.9831 401.1 90.9747 400.999 90.9747C400.915 90.9747 400.814 90.9747 400.696 90.9747C400.594 90.9578 400.493 90.941 400.392 90.9241C400.308 90.9072 400.257 90.8904 400.24 90.8735ZM414.065 90.0385C413.997 89.7854 413.997 89.5915 414.065 89.4565C414.149 89.3047 414.259 89.195 414.394 89.1276C414.529 89.0601 414.681 89.0264 414.849 89.0264C415.018 89.0095 415.17 89.001 415.305 89.001C415.423 89.001 415.566 89.0095 415.735 89.0264C415.904 89.0264 416.055 89.0601 416.19 89.1276C416.325 89.195 416.426 89.3047 416.494 89.4565C416.561 89.5915 416.561 89.7854 416.494 90.0385C416.477 90.1566 416.426 90.2746 416.342 90.3927C416.258 90.4939 416.157 90.5951 416.038 90.6964C415.937 90.7976 415.819 90.8819 415.684 90.9494C415.549 91.0169 415.423 91.0506 415.305 91.0506C415.17 91.0506 415.035 91.0169 414.9 90.9494C414.765 90.8819 414.638 90.7976 414.52 90.6964C414.402 90.5951 414.301 90.4939 414.217 90.3927C414.149 90.2746 414.099 90.1566 414.065 90.0385Z" fill="white"/>
<path d="M229.58 120.368C221.966 119.249 170.341 116.293 136.409 109.568C112.989 104.927 97.9499 99.4961 67.739 91.4843C16.5621 77.9122 10.4466 65.545 4.63513 59.9182C-5.38979 50.2118 7.44712 33.7886 16.6041 28.7553C25.6745 23.7696 41.9985 17.3953 66.0663 11.7685C84.1614 7.53806 107.41 5.04436 148.926 2.9952C182.644 1.33097 242.789 1.31556 280.34 2.41292C332.129 3.92638 362.075 15.7941 391.363 26.9749C411.567 34.688 426.563 50.0811 440.984 72.2412C460.757 102.628 440.119 108.768 436.297 114.747C435.258 116.373 431.524 117.726 430.529 119.226C426.857 124.763 439.138 130.043 445.858 135.838C452.742 141.775 463.134 155.731 469.421 166.435C470.643 168.517 472.563 171.488 471.843 170.931C451.124 154.89 434.408 147.646 425.251 143.15C416.405 138.807 395.992 134.209 357.114 127.669C342.175 125.609 330.581 124.478 319.549 123.549C314.228 122.989 309.469 122.25 298.798 121.488" stroke="white" stroke-width="1.85075" stroke-linecap="round"/>
</svg>
