<svg width="72" height="85" viewBox="0 0 72 85" fill="none" xmlns="http://www.w3.org/2000/svg">
<path d="M22.6659 47.8518C22.6659 47.8518 22.2122 59.2237 17.9942 60.0277C13.7052 60.8452 11.8361 49.5333 11.8361 49.5333C11.8361 49.5333 6.14794 26.5172 16.2664 24.9462C26.3849 23.3752 22.6659 47.8518 22.6659 47.8518Z" fill="#D9ACDB"/>
<path d="M26.1001 48.8652C26.1001 48.8652 21.7304 60.2782 17.5248 60.249C13.2484 60.2192 15.435 48.4028 15.435 48.4028C15.435 48.4028 18.1291 23.9838 28.0937 24.4158C38.0583 24.8478 26.1001 48.8652 26.1001 48.8652Z" fill="#D9ACDB"/>
<path d="M31.3485 9.13708C12.1553 1.26192 4.1514 16.2858 4.1514 16.2858C4.1514 16.2858 16.5538 11.5285 30.7769 19.4201C45 27.3118 66.3165 60.0599 66.3165 60.0599C66.3165 60.0599 50.5416 17.0122 31.3485 9.13708Z" fill="#D9ACDB"/>
<path d="M30.0106 71.7696C30.0106 71.7696 11.012 76.0462 7.41175 73.0138C3.75098 69.9305 4.66237 55.6818 19.7468 57.3194C34.8312 58.9569 58.8395 47.5139 65.7357 44.7597C72.6318 42.0054 61.0305 57.6318 50.8286 62.9263C40.9173 68.07 30.0106 71.7696 30.0106 71.7696Z" fill="#D9ACDB"/>
</svg>
